<svg width="759" height="265" viewBox="0 0 759 265" fill="none" xmlns="http://www.w3.org/2000/svg">
<path d="M728.707 203.904C718.824 203.904 711.272 201.573 706.051 196.911C701.016 192.063 698.499 185.444 698.499 177.052C698.499 169.594 701.109 163.254 706.33 158.033C711.738 152.811 719.197 150.201 728.707 150.201C738.403 150.201 745.862 152.625 751.083 157.473C756.304 162.135 758.914 168.661 758.914 177.052C758.914 184.511 756.211 190.851 750.803 196.072C745.582 201.293 738.216 203.904 728.707 203.904Z" fill="black"/>
<path d="M545.466 200.827V5.03467H645.879C659.119 5.03467 670.959 7.92494 681.402 13.7055C692.03 19.2995 700.422 27.038 706.575 36.9209C712.729 46.8037 715.805 58.1783 715.805 71.0447C715.805 84.4705 712.635 96.4977 706.295 107.126C699.955 117.569 691.285 125.867 680.283 132.02C669.468 137.987 657.254 140.971 643.642 140.971H600.847V200.827H545.466ZM600.008 93.1413H633.293C637.954 93.1413 642.15 92.3022 645.879 90.6239C649.795 88.9457 652.872 86.5216 655.11 83.3517C657.347 80.1817 658.466 76.3591 658.466 71.8838C658.466 67.595 657.347 64.0521 655.11 61.2551C652.872 58.458 649.795 56.4069 645.879 55.1016C642.15 53.6098 637.954 52.864 633.293 52.864H600.008V93.1413Z" fill="black"/>
<path d="M493.319 203.904C483.436 203.904 475.884 201.573 470.663 196.911C465.628 192.063 463.111 185.444 463.111 177.052C463.111 169.594 465.721 163.254 470.942 158.033C476.35 152.811 483.809 150.201 493.319 150.201C503.015 150.201 510.474 152.625 515.695 157.473C520.916 162.135 523.527 168.661 523.527 177.052C523.527 184.511 520.823 190.851 515.415 196.072C510.194 201.293 502.829 203.904 493.319 203.904Z" fill="black"/>
<path d="M346.308 203.624C329.712 203.624 314.515 201.107 300.716 196.072C287.104 191.038 275.17 183.952 264.914 174.815C254.845 165.491 247.013 154.676 241.419 142.369C236.012 130.062 233.308 116.543 233.308 101.812C233.308 87.081 236.012 73.562 241.419 61.2551C247.013 48.9481 254.845 38.2262 264.914 29.0892C275.17 19.7657 287.104 12.5867 300.716 7.552C314.515 2.51733 329.712 0 346.308 0C362.717 0 377.728 2.51733 391.34 7.552C405.139 12.5867 417.073 19.7657 427.142 29.0892C437.398 38.2262 445.23 48.9481 450.638 61.2551C456.232 73.562 459.029 86.9878 459.029 101.532C459.029 116.263 456.232 129.876 450.638 142.369C445.23 154.676 437.398 165.491 427.142 174.815C417.073 183.952 405.139 191.038 391.34 196.072C377.728 201.107 362.717 203.624 346.308 203.624ZM346.308 152.159C354.326 152.159 361.785 150.947 368.684 148.523C375.584 146.098 381.551 142.649 386.585 138.174C391.807 133.512 395.722 128.104 398.333 121.951C401.13 115.797 402.528 109.084 402.528 101.812C402.528 94.5398 401.13 87.8269 398.333 81.6734C395.722 75.52 391.807 70.2056 386.585 65.7303C381.551 61.0686 375.584 57.5257 368.684 55.1016C361.785 52.6775 354.326 51.4655 346.308 51.4655C338.103 51.4655 330.551 52.6775 323.652 55.1016C316.753 57.5257 310.693 61.0686 305.471 65.7303C300.437 70.3921 296.521 75.7997 293.724 81.9531C291.113 87.9202 289.808 94.5398 289.808 101.812C289.808 109.084 291.113 115.797 293.724 121.951C296.521 127.918 300.437 133.232 305.471 137.894C310.693 142.556 316.753 146.098 323.652 148.523C330.551 150.947 338.103 152.159 346.308 152.159Z" fill="black"/>
<path d="M198.931 203.904C189.048 203.904 181.496 201.573 176.275 196.911C171.24 192.063 168.723 185.444 168.723 177.052C168.723 169.594 171.333 163.254 176.554 158.033C181.962 152.811 189.421 150.201 198.931 150.201C208.627 150.201 216.086 152.625 221.307 157.473C226.528 162.135 229.139 168.661 229.139 177.052C229.139 184.511 226.435 190.851 221.027 196.072C215.806 201.293 208.441 203.904 198.931 203.904Z" fill="black"/>
<path d="M67.1288 200.827V52.864H0V5.03467H191.597V52.864H122.51V200.827H67.1288Z" fill="black"/>
<path d="M740.811 264.217V235.451H729.502V229.499H758.864V235.451H747.258V264.217H740.811Z" fill="#464545"/>
<path d="M708.984 264.714C706.339 264.714 703.892 264.284 701.644 263.424C699.396 262.564 697.428 261.341 695.742 259.754C694.089 258.167 692.799 256.282 691.873 254.1C690.948 251.884 690.485 249.454 690.485 246.809C690.485 244.263 690.964 241.915 691.923 239.766C692.915 237.617 694.254 235.749 695.94 234.162C697.66 232.541 699.644 231.285 701.892 230.392C704.173 229.499 706.604 229.053 709.183 229.053C711.101 229.053 712.936 229.317 714.688 229.847C716.474 230.376 718.094 231.07 719.549 231.93C721.037 232.789 722.26 233.748 723.219 234.806L719.251 239.667C718.292 238.741 717.284 237.964 716.226 237.336C715.168 236.674 714.027 236.162 712.803 235.798C711.613 235.435 710.34 235.253 708.984 235.253C707.43 235.253 705.926 235.534 704.471 236.096C703.016 236.625 701.743 237.402 700.652 238.427C699.561 239.452 698.685 240.675 698.023 242.097C697.395 243.519 697.081 245.106 697.081 246.858C697.081 248.677 697.395 250.314 698.023 251.769C698.685 253.19 699.594 254.414 700.751 255.439C701.909 256.431 703.248 257.208 704.769 257.77C706.29 258.299 707.926 258.563 709.679 258.563C711.134 258.563 712.473 258.365 713.696 257.968C714.92 257.571 716.027 257.076 717.019 256.48C718.011 255.852 718.92 255.174 719.747 254.447L722.872 259.605C722.012 260.432 720.855 261.242 719.4 262.035C717.978 262.829 716.358 263.474 714.539 263.97C712.721 264.466 710.869 264.714 708.984 264.714Z" fill="#464545"/>
<path d="M655.815 264.217V229.499H681.308V235.352H662.163V258.365H681.506V264.217H655.815ZM658.989 249.338V243.585H678.778V249.338H658.989Z" fill="#464545"/>
<path d="M628.135 264.713C626.548 264.713 625.109 264.499 623.82 264.069C622.53 263.639 621.39 263.093 620.398 262.432C619.406 261.738 618.563 260.994 617.868 260.2C617.207 259.373 616.661 258.58 616.231 257.819L620.249 253.703C620.778 254.496 621.323 255.224 621.886 255.885C622.448 256.513 623.01 257.042 623.572 257.472C624.167 257.869 624.812 258.183 625.506 258.415C626.234 258.646 626.994 258.762 627.788 258.762C629.143 258.762 630.317 258.464 631.309 257.869C632.334 257.241 633.111 256.398 633.64 255.34C634.202 254.281 634.483 253.108 634.483 251.818V235.451H627.192V229.499H646.684V235.451H640.832V252.463C640.832 254.149 640.534 255.736 639.939 257.224C639.344 258.679 638.484 259.985 637.36 261.142C636.269 262.267 634.93 263.143 633.343 263.771C631.789 264.399 630.053 264.713 628.135 264.713Z" fill="#464545"/>
<path d="M590.329 264.713C587.585 264.713 585.055 264.267 582.741 263.374C580.459 262.482 578.459 261.225 576.739 259.605C575.02 257.985 573.697 256.083 572.772 253.901C571.846 251.719 571.383 249.355 571.383 246.809C571.383 244.263 571.846 241.899 572.772 239.716C573.697 237.534 575.02 235.633 576.739 234.013C578.459 232.392 580.459 231.136 582.741 230.243C585.055 229.35 587.585 228.904 590.329 228.904C593.074 228.904 595.603 229.35 597.918 230.243C600.232 231.136 602.233 232.409 603.919 234.062C605.605 235.682 606.911 237.584 607.837 239.766C608.796 241.915 609.275 244.263 609.275 246.809C609.275 249.322 608.796 251.669 607.837 253.852C606.911 256.034 605.605 257.952 603.919 259.605C602.233 261.225 600.232 262.482 597.918 263.374C595.603 264.267 593.074 264.713 590.329 264.713ZM590.329 258.563C592.148 258.563 593.801 258.282 595.289 257.72C596.81 257.125 598.116 256.298 599.207 255.24C600.331 254.149 601.191 252.893 601.786 251.471C602.414 250.049 602.729 248.495 602.729 246.809C602.729 245.122 602.414 243.568 601.786 242.147C601.191 240.725 600.331 239.485 599.207 238.427C598.116 237.336 596.81 236.509 595.289 235.947C593.801 235.352 592.148 235.054 590.329 235.054C588.544 235.054 586.89 235.352 585.369 235.947C583.848 236.509 582.526 237.336 581.402 238.427C580.31 239.485 579.467 240.725 578.872 242.147C578.277 243.568 577.979 245.122 577.979 246.809C577.979 248.495 578.277 250.049 578.872 251.471C579.467 252.893 580.31 254.149 581.402 255.24C582.526 256.298 583.848 257.125 585.369 257.72C586.89 258.282 588.544 258.563 590.329 258.563Z" fill="#464545"/>
<path d="M533.517 264.217V229.499H550.677C552.827 229.499 554.777 229.979 556.53 230.938C558.282 231.896 559.654 233.203 560.646 234.856C561.671 236.509 562.184 238.377 562.184 240.46C562.184 242.51 561.655 244.378 560.597 246.065C559.539 247.751 558.117 249.09 556.331 250.082C554.546 251.074 552.562 251.57 550.38 251.57H539.815V264.217H533.517ZM556.133 264.217L546.114 248.545L552.86 247.305L563.87 264.267L556.133 264.217ZM539.815 245.966H550.181C551.206 245.966 552.116 245.734 552.909 245.271C553.736 244.775 554.381 244.131 554.843 243.337C555.339 242.51 555.587 241.601 555.587 240.609C555.587 239.584 555.323 238.675 554.794 237.881C554.265 237.088 553.537 236.459 552.612 235.997C551.686 235.534 550.628 235.302 549.437 235.302H539.815V245.966Z" fill="#464545"/>
<path d="M495.204 264.217V229.499H512.068C514.118 229.499 515.969 229.979 517.622 230.938C519.309 231.896 520.648 233.203 521.64 234.856C522.665 236.509 523.177 238.361 523.177 240.411C523.177 242.527 522.648 244.445 521.59 246.164C520.565 247.85 519.177 249.206 517.424 250.231C515.705 251.223 513.787 251.719 511.671 251.719H501.652V264.217H495.204ZM501.652 245.767H511.076C512.035 245.767 512.927 245.536 513.754 245.073C514.581 244.577 515.242 243.932 515.738 243.139C516.234 242.345 516.482 241.452 516.482 240.46C516.482 239.501 516.234 238.658 515.738 237.931C515.242 237.17 514.581 236.575 513.754 236.145C512.927 235.682 512.035 235.451 511.076 235.451H501.652V245.767Z" fill="#464545"/>
<path d="M447.888 264.217V247.602L448.483 250.628L432.612 229.499H440.547L452.401 245.718L450.12 245.618L461.18 229.499H468.619L453.79 250.38L454.335 247.206V264.217H447.888Z" fill="#464545"/>
<path d="M410.786 264.714C408.075 264.714 405.546 264.3 403.198 263.474C400.884 262.614 398.85 261.407 397.098 259.853C395.378 258.266 394.023 256.381 393.031 254.199C392.072 251.984 391.592 249.52 391.592 246.809C391.592 244.296 392.072 241.965 393.031 239.816C394.023 237.633 395.411 235.749 397.197 234.162C398.982 232.541 401.065 231.285 403.446 230.392C405.86 229.499 408.455 229.053 411.233 229.053C413.349 229.053 415.333 229.317 417.185 229.847C419.069 230.376 420.739 231.086 422.194 231.979C423.682 232.872 424.889 233.847 425.814 234.905L421.748 239.27C420.756 238.41 419.697 237.683 418.573 237.088C417.482 236.46 416.308 235.964 415.052 235.6C413.828 235.236 412.539 235.054 411.183 235.054C409.365 235.054 407.662 235.352 406.075 235.947C404.521 236.542 403.165 237.369 402.008 238.427C400.85 239.485 399.941 240.725 399.28 242.147C398.619 243.568 398.288 245.123 398.288 246.809C398.288 248.627 398.619 250.281 399.28 251.769C399.974 253.223 400.917 254.48 402.107 255.538C403.33 256.563 404.719 257.357 406.273 257.919C407.827 258.448 409.48 258.712 411.233 258.712C412.721 258.712 414.109 258.53 415.399 258.167C416.722 257.803 417.879 257.307 418.871 256.679C419.863 256.017 420.623 255.24 421.152 254.348C421.714 253.455 421.979 252.496 421.946 251.471V250.529L422.839 251.719H410.886V246.015H428.394C428.46 246.445 428.509 246.875 428.542 247.305C428.575 247.702 428.592 248.082 428.592 248.446C428.625 248.776 428.642 249.057 428.642 249.289C428.642 251.702 428.195 253.868 427.302 255.786C426.41 257.671 425.153 259.274 423.533 260.597C421.946 261.92 420.061 262.945 417.879 263.672C415.73 264.366 413.366 264.714 410.786 264.714Z" fill="#464545"/>
<path d="M364.864 264.713C362.12 264.713 359.59 264.267 357.276 263.374C354.994 262.482 352.994 261.225 351.275 259.605C349.555 257.985 348.233 256.083 347.307 253.901C346.381 251.719 345.918 249.355 345.918 246.809C345.918 244.263 346.381 241.899 347.307 239.716C348.233 237.534 349.555 235.633 351.275 234.013C352.994 232.392 354.994 231.136 357.276 230.243C359.59 229.35 362.12 228.904 364.864 228.904C367.609 228.904 370.138 229.35 372.453 230.243C374.767 231.136 376.768 232.409 378.454 234.062C380.14 235.682 381.446 237.584 382.372 239.766C383.331 241.915 383.811 244.263 383.811 246.809C383.811 249.322 383.331 251.669 382.372 253.852C381.446 256.034 380.14 257.952 378.454 259.605C376.768 261.225 374.767 262.482 372.453 263.374C370.138 264.267 367.609 264.713 364.864 264.713ZM364.864 258.563C366.683 258.563 368.336 258.282 369.824 257.72C371.345 257.125 372.651 256.298 373.742 255.24C374.866 254.149 375.726 252.893 376.321 251.471C376.95 250.049 377.264 248.495 377.264 246.809C377.264 245.122 376.95 243.568 376.321 242.147C375.726 240.725 374.866 239.485 373.742 238.427C372.651 237.336 371.345 236.509 369.824 235.947C368.336 235.352 366.683 235.054 364.864 235.054C363.079 235.054 361.426 235.352 359.905 235.947C358.384 236.509 357.061 237.336 355.937 238.427C354.846 239.485 354.002 240.725 353.407 242.147C352.812 243.568 352.515 245.122 352.515 246.809C352.515 248.495 352.812 250.049 353.407 251.471C354.002 252.893 354.846 254.149 355.937 255.24C357.061 256.298 358.384 257.125 359.905 257.72C361.426 258.282 363.079 258.563 364.864 258.563Z" fill="#464545"/>
<path d="M313.573 264.217V229.499H320.021V258.266H338.818V264.217H313.573Z" fill="#464545"/>
<path d="M284.365 264.713C281.621 264.713 279.092 264.267 276.777 263.374C274.496 262.482 272.495 261.225 270.776 259.605C269.056 257.985 267.734 256.083 266.808 253.901C265.882 251.719 265.419 249.355 265.419 246.809C265.419 244.263 265.882 241.899 266.808 239.716C267.734 237.534 269.056 235.633 270.776 234.013C272.495 232.392 274.496 231.136 276.777 230.243C279.092 229.35 281.621 228.904 284.365 228.904C287.11 228.904 289.639 229.35 291.954 230.243C294.268 231.136 296.269 232.409 297.955 234.062C299.641 235.682 300.947 237.584 301.873 239.766C302.832 241.915 303.312 244.263 303.312 246.809C303.312 249.322 302.832 251.669 301.873 253.852C300.947 256.034 299.641 257.952 297.955 259.605C296.269 261.225 294.268 262.482 291.954 263.374C289.639 264.267 287.11 264.713 284.365 264.713ZM284.365 258.563C286.184 258.563 287.837 258.282 289.325 257.72C290.846 257.125 292.152 256.298 293.243 255.24C294.368 254.149 295.227 252.893 295.822 251.471C296.451 250.049 296.765 248.495 296.765 246.809C296.765 245.122 296.451 243.568 295.822 242.147C295.227 240.725 294.368 239.485 293.243 238.427C292.152 237.336 290.846 236.509 289.325 235.947C287.837 235.352 286.184 235.054 284.365 235.054C282.58 235.054 280.927 235.352 279.406 235.947C277.885 236.509 276.562 237.336 275.438 238.427C274.347 239.485 273.504 240.725 272.908 242.147C272.313 243.568 272.016 245.122 272.016 246.809C272.016 248.495 272.313 250.049 272.908 251.471C273.504 252.893 274.347 254.149 275.438 255.24C276.562 256.298 277.885 257.125 279.406 257.72C280.927 258.282 282.58 258.563 284.365 258.563Z" fill="#464545"/>
<path d="M242.027 264.217V235.451H230.719V229.499H260.08V235.451H248.475V264.217H242.027Z" fill="#464545"/>
<path d="M188.03 264.217V229.499H194.031L216.945 256.629L216.052 256.827C215.887 255.836 215.755 254.827 215.656 253.802C215.556 252.744 215.457 251.669 215.358 250.578C215.292 249.487 215.226 248.363 215.16 247.206C215.127 246.048 215.093 244.874 215.06 243.684C215.06 242.461 215.06 241.204 215.06 239.915V229.499H221.458V264.217H215.358L192.345 237.484L193.436 237.137C193.535 238.493 193.634 239.716 193.733 240.807C193.833 241.899 193.932 242.907 194.031 243.833C194.13 244.726 194.196 245.569 194.229 246.362C194.296 247.123 194.345 247.883 194.378 248.644C194.411 249.371 194.428 250.082 194.428 250.777V264.217H188.03Z" fill="#464545"/>
<path d="M158.822 264.713C156.078 264.713 153.548 264.267 151.234 263.374C148.952 262.482 146.952 261.225 145.232 259.605C143.513 257.985 142.19 256.083 141.264 253.901C140.339 251.719 139.876 249.355 139.876 246.809C139.876 244.263 140.339 241.899 141.264 239.716C142.19 237.534 143.513 235.633 145.232 234.013C146.952 232.392 148.952 231.136 151.234 230.243C153.548 229.35 156.078 228.904 158.822 228.904C161.566 228.904 164.096 229.35 166.41 230.243C168.725 231.136 170.725 232.409 172.412 234.062C174.098 235.682 175.404 237.584 176.33 239.766C177.289 241.915 177.768 244.263 177.768 246.809C177.768 249.322 177.289 251.669 176.33 253.852C175.404 256.034 174.098 257.952 172.412 259.605C170.725 261.225 168.725 262.482 166.41 263.374C164.096 264.267 161.566 264.713 158.822 264.713ZM158.822 258.563C160.641 258.563 162.294 258.282 163.782 257.72C165.303 257.125 166.609 256.298 167.7 255.24C168.824 254.149 169.684 252.893 170.279 251.471C170.907 250.049 171.221 248.495 171.221 246.809C171.221 245.122 170.907 243.568 170.279 242.147C169.684 240.725 168.824 239.485 167.7 238.427C166.609 237.336 165.303 236.509 163.782 235.947C162.294 235.352 160.641 235.054 158.822 235.054C157.036 235.054 155.383 235.352 153.862 235.947C152.341 236.509 151.019 237.336 149.894 238.427C148.803 239.485 147.96 240.725 147.365 242.147C146.77 243.568 146.472 245.122 146.472 246.809C146.472 248.495 146.77 250.049 147.365 251.471C147.96 252.893 148.803 254.149 149.894 255.24C151.019 256.298 152.341 257.125 153.862 257.72C155.383 258.282 157.036 258.563 158.822 258.563Z" fill="#464545"/>
<path d="M86.5583 264.217V229.499H112.051V235.352H92.9068V258.365H112.25V264.217H86.5583ZM89.7326 249.338V243.585H109.522V249.338H89.7326Z" fill="#464545"/>
<path d="M67.4324 264.217V229.499H73.8801V264.217H67.4324ZM42.3857 264.217V229.499H48.8334V264.217H42.3857ZM45.064 250.033V243.982H70.5571V250.033H45.064Z" fill="#464545"/>
<path d="M15.0123 264.217V235.451H3.7041V229.499H33.0658V235.451H21.46V264.217H15.0123Z" fill="#464545"/>
</svg>
